<?xml version="1.0" encoding="utf-8"?>
<!-- Generator: Adobe Illustrator 16.0.0, SVG Export Plug-In . SVG Version: 6.00 Build 0)  -->
<!DOCTYPE svg PUBLIC "-//W3C//DTD SVG 1.1//EN" "http://www.w3.org/Graphics/SVG/1.1/DTD/svg11.dtd">
<svg version="1.1" xmlns="http://www.w3.org/2000/svg" xmlns:xlink="http://www.w3.org/1999/xlink" x="0px" y="0px"
	 width="335.986px" height="235.19px" viewBox="0 0 335.986 235.19" enable-background="new 0 0 335.986 235.19"
	 xml:space="preserve">
<g id="bg">
	<g>
		<g>
			<rect x="0" y="0" fill="#F5F5F5" width="335.987" height="235.189"/>
		</g>
	</g>
	<path fill="#DCDBDD" d="M245.764,151.055c0,2.525-2.049,4.57-4.57,4.57H95.523c-2.525,0-4.57-2.045-4.57-4.57V64.226
		c0-2.524,2.044-4.573,4.57-4.573h145.67c2.521,0,4.57,2.049,4.57,4.573V151.055z"/>
	<rect x="97.237" y="66.655" fill="#4E4E4E" width="142.242" height="81.97"/>
	<g>
		<polygon fill="#DCDBDD" points="243.477,155.625 168.357,155.625 168.357,176.762 273.182,176.762 		"/>
		<polygon fill="#DCDBDD" points="63.533,176.762 168.357,176.762 168.357,155.625 93.237,155.625 		"/>
	</g>
	<rect x="63.533" y="176.762" fill="#C6C6C5" width="209.648" height="6.711"/>
	<g>
		<polygon fill="#5A5A5A" points="252.916,170.656 84.247,170.586 99.316,158.729 241.483,158.729 		"/>
	</g>
	<rect x="37.375" y="26.301" opacity="0.1" fill="#1D1D1B" width="67.409" height="86.209"/>
	<rect x="44.713" y="19.756" fill="#FFFFFF" width="67.409" height="86.209"/>
	<rect x="44.713" y="19.756" fill="#FF643A" width="67.409" height="10.233"/>
	<circle fill="#ADFDF4" cx="54.104" cy="24.631" r="2.329"/>
	<circle fill="#ADFDF4" cx="62.487" cy="24.631" r="2.328"/>
	<circle fill="#ADFDF4" cx="70.872" cy="24.631" r="2.328"/>
	<circle fill="#ADFDF4" cx="103.067" cy="24.631" r="2.328"/>
	<rect x="226.303" y="129.994" opacity="0.1" fill="#1D1D1B" width="67.41" height="86.209"/>
	<rect x="233.641" y="123.449" fill="#FFFFFF" width="67.409" height="86.209"/>
	<rect x="233.641" y="123.449" fill="#FF643A" width="67.409" height="10.232"/>
	<circle fill="#ADFDF4" cx="243.031" cy="128.324" r="2.328"/>
	<circle fill="#ADFDF4" cx="251.415" cy="128.324" r="2.327"/>
	<circle fill="#ADFDF4" cx="259.799" cy="128.324" r="2.328"/>
	<circle fill="#ADFDF4" cx="291.995" cy="128.324" r="2.329"/>
	<rect x="125.288" y="91.981" fill="#F2F0F1" width="5.64" height="4.484"/>
	<rect x="135.503" y="91.981" fill="#F2F0F1" width="36.465" height="4.484"/>
	<rect x="125.288" y="100.665" fill="#F2F0F1" width="5.64" height="4.484"/>
	<rect x="158.287" y="100.665" fill="#F2F0F1" width="11.079" height="4.484"/>
	<rect x="177.366" y="100.665" fill="#F2F0F1" width="33.149" height="4.484"/>
	<rect x="177.366" y="118.032" fill="#F2F0F1" width="35.13" height="4.484"/>
	<rect x="192.946" y="109.865" fill="#F2F0F1" width="26.591" height="4.483"/>
	<rect x="177.366" y="109.865" fill="#F2F0F1" width="13.295" height="4.483"/>
	<rect x="171.969" y="100.665" fill="#F2F0F1" width="2.47" height="4.484"/>
	<rect x="171.969" y="128.957" fill="#F2F0F1" width="28.35" height="4.484"/>
	<rect x="171.969" y="118.032" fill="#F2F0F1" width="2.47" height="4.484"/>
	<rect x="158.287" y="109.348" fill="#F2F0F1" width="11.079" height="4.484"/>
	<rect x="158.287" y="118.032" fill="#F2F0F1" width="11.079" height="4.484"/>
	<rect x="125.288" y="109.348" fill="#F2F0F1" width="5.64" height="4.484"/>
	<rect x="125.288" y="118.032" fill="#F2F0F1" width="5.64" height="4.484"/>
	<rect x="125.288" y="126.715" fill="#F2F0F1" width="5.64" height="4.484"/>
	<polygon fill-rule="evenodd" clip-rule="evenodd" fill="#FF643A" points="160.417,80.918 155.796,85.54 160.417,90.16 
		161.737,88.839 158.437,85.54 161.737,82.239 	"/>
	<polygon fill-rule="evenodd" clip-rule="evenodd" fill="#FF643A" points="157.117,134.471 161.737,129.852 157.117,125.23 
		155.796,126.551 159.097,129.852 155.796,133.15 	"/>
	
		<line fill-rule="evenodd" clip-rule="evenodd" fill="#FF643A" stroke="#FF643A" stroke-width="2" stroke-miterlimit="10" x1="151.028" y1="133.729" x2="153.578" y2="125.973"/>
	<g>
		<rect x="84.489" y="199.641" fill="#DCDBDD" width="126.053" height="20.396"/>
	</g>
	<g>
		<rect x="187.875" y="199.641" fill="#4E4E4E" width="22.667" height="20.396"/>
	</g>
	<g opacity="0.1">
		<rect x="90.244" y="203.051" fill="#4E4E4E" width="92.631" height="13.262"/>
	</g>
	<g>
		<path fill="#FFFFFF" d="M204.551,213.363l-2.871-2.637c0.328-0.652,0.52-1.387,0.52-2.17c0-2.666-2.16-4.824-4.824-4.824
			c-2.662,0-4.822,2.158-4.822,4.824c0,2.662,2.16,4.824,4.822,4.824c0.785,0,1.518-0.191,2.171-0.521l2.636,2.871
			c0.262,0.277,0.684,0.285,0.955,0.02l1.434-1.43C204.837,214.051,204.828,213.621,204.551,213.363z M197.375,211.496
			c-1.624,0-2.939-1.314-2.939-2.939s1.315-2.943,2.939-2.943c1.627,0,2.947,1.318,2.947,2.943S199.002,211.496,197.375,211.496z"/>
	</g>
	<circle fill="#4E4E4E" cx="78.143" cy="72.484" r="23.606"/>
	<g>
		<path fill="#FFFFFF" d="M78.813,72.484v-16.44c-0.225-0.01-0.444-0.035-0.67-0.035c-9.099,0-16.475,7.377-16.475,16.476
			c0,9.1,7.376,16.475,16.475,16.475c4.72,0,8.965-1.994,11.969-5.177L78.813,72.484z"/>
	</g>
	<path fill="#FF643A" d="M69.315,66.757c0,1.077-0.873,1.949-1.949,1.949h-46.54c-1.076,0-1.949-0.872-1.949-1.949V40.871
		c0-1.076,0.873-1.949,1.949-1.949h46.54c1.076,0,1.949,0.873,1.949,1.949V66.757z"/>
	<text transform="matrix(1.139 0 0 1 24.1343 58.5103)" fill="#FFFFFF" font-family="'Roboto-Bold'" font-size="12.8958">HTTP</text>
	<circle fill="#4E4E4E" cx="268.166" cy="164.732" r="23.629"/>
	<g>
		<path fill="#FFFFFF" d="M268.838,164.732v-16.457c-0.225-0.01-0.445-0.035-0.672-0.035c-9.107,0-16.491,7.383-16.491,16.492
			c0,9.107,7.384,16.49,16.491,16.49s16.491-7.383,16.491-16.49H268.838z"/>
	</g>
	<path fill="#FF643A" d="M317.12,198.348c0,1.078-0.872,1.949-1.948,1.949h-46.541c-1.076,0-1.948-0.871-1.948-1.949v-25.887
		c0-1.076,0.872-1.949,1.948-1.949h46.541c1.076,0,1.948,0.873,1.948,1.949V198.348z"/>
	<text transform="matrix(1.139 0 0 1 271.9395 190.1016)" fill="#FFFFFF" font-family="'Roboto-Bold'" font-size="12.8958">WWW</text>
	<g>
		<g id="Body_5_">
			<g>
				<path fill="#DCDBDD" d="M261.428,52.923v36.964c0,2.152,1.743,3.896,3.893,3.896h46.693c2.148,0,3.892-1.744,3.892-3.896V52.923
					H261.428z"/>
			</g>
		</g>
		<g id="Body_3_">
			<g>
				<path fill="#4E4E4E" d="M312.014,31.523H265.32c-2.149,0-3.893,1.74-3.893,3.889v17.512h54.478V35.412
					C315.905,33.263,314.162,31.523,312.014,31.523z"/>
			</g>
		</g>
		<g id="Display_2_">
			<g>
				<path fill="#FFFFFF" d="M308.123,37.359h-38.912c-1.076,0-1.946,0.87-1.946,1.946v7.783c0,1.076,0.87,1.946,1.946,1.946h38.912
					c1.073,0,1.944-0.87,1.944-1.946v-7.783C310.067,38.229,309.196,37.359,308.123,37.359z"/>
			</g>
		</g>
		<g id="Keypad_2_">
			<g>
				<path fill-rule="evenodd" clip-rule="evenodd" fill="#999999" d="M273.103,56.813h-3.892c-1.076,0-1.946,0.875-1.946,1.951
					v3.886c0,1.076,0.87,1.95,1.946,1.95h3.892c1.072,0,1.944-0.874,1.944-1.95v-3.886
					C275.047,57.688,274.175,56.813,273.103,56.813z M273.103,68.489h-3.892c-1.076,0-1.946,0.87-1.946,1.943v3.894
					c0,1.076,0.87,1.946,1.946,1.946h3.892c1.072,0,1.944-0.87,1.944-1.946v-3.894C275.047,69.359,274.175,68.489,273.103,68.489z
					 M273.103,80.162h-3.892c-1.076,0-1.946,0.874-1.946,1.946v3.891c0,1.076,0.87,1.946,1.946,1.946h3.892
					c1.072,0,1.944-0.87,1.944-1.946v-3.891C275.047,81.036,274.175,80.162,273.103,80.162z M284.776,56.813h-3.892
					c-1.076,0-1.945,0.875-1.945,1.951v3.886c0,1.076,0.869,1.95,1.945,1.95h3.892c1.072,0,1.944-0.874,1.944-1.95v-3.886
					C286.721,57.688,285.849,56.813,284.776,56.813z M284.776,68.489h-3.892c-1.076,0-1.945,0.87-1.945,1.943v3.894
					c0,1.076,0.869,1.946,1.945,1.946h3.892c1.072,0,1.944-0.87,1.944-1.946v-3.894C286.721,69.359,285.849,68.489,284.776,68.489z
					 M284.776,80.162h-3.892c-1.076,0-1.945,0.874-1.945,1.946v3.891c0,1.076,0.869,1.946,1.945,1.946h3.892
					c1.072,0,1.944-0.87,1.944-1.946v-3.891C286.721,81.036,285.849,80.162,284.776,80.162z M296.449,56.813h-3.891
					c-1.076,0-1.947,0.875-1.947,1.951v3.886c0,1.076,0.871,1.95,1.947,1.95h3.891c1.074,0,1.946-0.874,1.946-1.95v-3.886
					C298.396,57.688,297.523,56.813,296.449,56.813z M296.449,68.489h-3.891c-1.076,0-1.947,0.87-1.947,1.943v3.894
					c0,1.076,0.871,1.946,1.947,1.946h3.891c1.074,0,1.946-0.87,1.946-1.946v-3.894C298.396,69.359,297.523,68.489,296.449,68.489z
					 M296.449,80.162h-3.891c-1.076,0-1.947,0.874-1.947,1.946v3.891c0,1.076,0.871,1.946,1.947,1.946h3.891
					c1.074,0,1.946-0.87,1.946-1.946v-3.891C298.396,81.036,297.523,80.162,296.449,80.162z M308.123,56.813h-3.892
					c-1.075,0-1.944,0.875-1.944,1.951v3.886c0,1.076,0.869,1.95,1.944,1.95h3.892c1.073,0,1.944-0.874,1.944-1.95v-3.886
					C310.067,57.688,309.196,56.813,308.123,56.813z"/>
			</g>
		</g>
		<g id="Key_2_">
			<g>
				<path fill="#FF643A" d="M308.123,68.489h-3.892c-1.075,0-1.944,0.87-1.944,1.943v15.566c0,1.076,0.869,1.946,1.944,1.946h3.892
					c1.073,0,1.944-0.87,1.944-1.946V70.432C310.067,69.359,309.196,68.489,308.123,68.489z"/>
			</g>
		</g>
	</g>
	<g>
		<rect x="133.475" y="15.17" fill="#4E4E4E" width="28.316" height="29.639"/>
	</g>
	<g>
		<rect x="161.791" y="15.17" fill="#DCDBDD" width="81.841" height="29.639"/>
	</g>
	<g>
		<path fill="#FF643A" d="M156.695,29.99c0,5.005-4.058,9.062-9.064,9.062c-5.002,0-9.064-4.058-9.064-9.062
			c0-5.006,4.062-9.065,9.064-9.065C152.637,20.924,156.695,24.984,156.695,29.99z"/>
	</g>
	<g>
		<path fill="#FFFFFF" d="M144.097,33.763c0,0.752,0.525,1.046,1.164,0.652l6.086-3.713c0.641-0.395,0.641-1.033,0-1.427
			l-6.086-3.714c-0.639-0.392-1.164-0.096-1.164,0.654V33.763z"/>
	</g>
	<rect x="169.487" y="22.064" fill="#FFFFFF" width="67.553" height="7.805"/>
	
		<line fill="#333333" stroke="#4E4E4E" stroke-width="3" stroke-linecap="round" stroke-miterlimit="10" x1="170.111" y1="37.914" x2="237.04" y2="37.914"/>
	<circle fill="#FF643A" cx="218.905" cy="37.915" r="3.366"/>
	<path opacity="0.1" fill="#1D1D1B" d="M76.583,143.266H62.399v-0.006h-4.361v0.006H33.817c-0.685,0-1.25,0.557-1.25,1.244v14.863
		H17.709c-0.686,0-1.25,0.557-1.25,1.246v48.42c0,0.693,0.564,1.25,1.25,1.25h42.766c0.514,0,0.959-0.314,1.149-0.762V194.18h14.958
		c0.514,0,0.958-0.312,1.149-0.758v-49.398C77.541,143.578,77.097,143.266,76.583,143.266z"/>
	<rect x="40.356" y="138.529" fill="#4E4E4E" width="40.024" height="44.275"/>
	<path fill="#FFFFFF" d="M80.92,135.869H66.736v-0.006h-4.361v0.006H38.154c-0.685,0-1.25,0.557-1.25,1.246v48.42
		c0,0.691,0.564,1.25,1.25,1.25H80.92c0.514,0,0.958-0.314,1.149-0.76v-49.398C81.878,136.182,81.434,135.869,80.92,135.869z
		 M76.826,173.188H42.249v-31.916h34.578V173.188z"/>
	<rect x="24.248" y="154.637" fill="#C6C6C5" width="40.025" height="44.275"/>
	<path fill="#FFFFFF" d="M64.812,151.977H50.629v-0.006h-4.362v0.006H22.046c-0.686,0-1.25,0.559-1.25,1.246v48.42
		c0,0.693,0.564,1.25,1.25,1.25h42.766c0.514,0,0.959-0.314,1.149-0.76v-49.396C65.771,152.289,65.327,151.977,64.812,151.977z
		 M60.718,189.297H26.141v-31.918h34.578V189.297z"/>
	<g>
		<path fill="#FF643A" d="M52.444,173.1c0,5.004-4.058,9.062-9.064,9.062c-5.002,0-9.064-4.059-9.064-9.062
			c0-5.006,4.062-9.066,9.064-9.066C48.386,164.033,52.444,168.094,52.444,173.1z"/>
	</g>
	<g>
		<path fill="#FFFFFF" d="M39.845,176.873c0,0.752,0.525,1.045,1.164,0.652l6.086-3.713c0.641-0.395,0.641-1.033,0-1.428
			l-6.086-3.713c-0.639-0.393-1.164-0.096-1.164,0.654V176.873z"/>
	</g>
	<polygon fill="#C6C6C5" points="289.447,105.84 284.709,99.988 282.969,101.727 281.229,103.467 287.082,108.205 287.529,111.736 
		290.254,109.011 292.979,106.286 	"/>
	<g>
		<line fill="#6E6058" x1="290.254" y1="109.011" x2="293.119" y2="111.876"/>
		<polygon fill="#6E6058" points="290.783,108.481 293.119,111.876 289.723,109.542 		"/>
	</g>
	<polygon fill="#FF643A" points="272.25,108.772 264.762,107.984 264.76,110.444 264.76,112.905 272.25,112.116 275.062,114.297 
		275.062,110.444 275.061,106.59 	"/>
	<g>
		<line fill="#6E6058" x1="275.062" y1="110.444" x2="279.113" y2="110.444"/>
		<polygon fill="#6E6058" points="275.062,109.694 279.113,110.444 275.062,111.194 		"/>
	</g>
	<polygon fill="#4E4E4E" points="314.233,119.961 313.445,127.449 315.905,127.451 318.366,127.451 317.577,119.961 
		319.759,117.149 315.905,117.149 312.052,117.15 	"/>
	<g>
		<line fill="#6E6058" x1="315.905" y1="117.149" x2="315.905" y2="113.097"/>
		<polygon fill="#6E6058" points="315.155,117.149 315.905,113.097 316.655,117.149 		"/>
	</g>
	<polygon fill="#C6C6C5" points="23.879,107.088 18.026,111.826 19.766,113.566 21.506,115.306 26.243,109.453 29.774,109.006 
		27.05,106.282 24.324,103.557 	"/>
	<g>
		<line fill="#6E6058" x1="27.05" y1="106.282" x2="29.915" y2="103.417"/>
		<polygon fill="#6E6058" points="26.52,105.751 29.915,103.417 27.58,106.812 		"/>
	</g>
	<polygon fill="#FF643A" points="26.811,124.285 26.022,131.773 28.482,131.775 30.943,131.775 30.154,124.285 32.336,121.473 
		28.482,121.473 24.629,121.475 	"/>
	<g>
		<line fill="#6E6058" x1="28.482" y1="121.473" x2="28.482" y2="117.421"/>
		<polygon fill="#6E6058" points="27.732,121.473 28.482,117.421 29.232,121.473 		"/>
	</g>
</g>
<g id="text">
</g>
<g id="Layer_1">
</g>
<g id="Layer_3">
</g>
<g id="Layer_4">
</g>
<g id="Layer_5">
</g>
<g id="Layer_6">
</g>
<g id="Layer_7">
</g>
</svg>
